<svg xmlns="http://www.w3.org/2000/svg" xmlns:xlink="http://www.w3.org/1999/xlink" width="500" zoomAndPan="magnify" viewBox="0 0 375 374.999991" height="500" preserveAspectRatio="xMidYMid meet" version="1.0"><defs><g/><clipPath id="efa9ac1cf3"><path d="M 112.5 95 L 262.5 95 L 262.5 242 L 112.5 242 Z M 112.5 95 " clip-rule="nonzero"/></clipPath></defs><rect x="-37.5" width="450" fill="#ffffff" y="-37.499999" height="449.999989" fill-opacity="1"/><rect x="-37.5" width="450" fill="#ffffff" y="-37.499999" height="449.999989" fill-opacity="1"/><rect x="-37.5" width="450" fill="#141414" y="-37.499999" height="449.999989" fill-opacity="1"/><g clip-path="url(#efa9ac1cf3)"><path fill="#d49b35" d="M 152.75 136.34375 C 153.199219 136.34375 153.566406 136.707031 153.566406 137.15625 C 153.566406 137.605469 153.199219 137.972656 152.75 137.972656 C 152.300781 137.972656 151.933594 137.605469 151.933594 137.15625 C 151.933594 136.707031 152.300781 136.34375 152.75 136.34375 Z M 201.433594 135.117188 C 201.148438 135.117188 200.945312 135.320312 200.945312 135.609375 C 200.945312 135.894531 201.148438 136.097656 201.433594 136.097656 C 201.71875 136.097656 201.921875 135.894531 201.921875 135.609375 C 201.921875 135.320312 201.71875 135.117188 201.433594 135.117188 Z M 199.964844 135.199219 C 199.597656 135.199219 199.355469 135.484375 199.355469 135.851562 C 199.355469 136.21875 199.640625 136.464844 200.007812 136.464844 C 200.375 136.464844 200.617188 136.179688 200.617188 135.8125 C 200.578125 135.445312 200.292969 135.199219 199.964844 135.199219 Z M 198.171875 135.402344 C 197.808594 135.402344 197.5625 135.6875 197.5625 136.054688 C 197.5625 136.421875 197.847656 136.667969 198.214844 136.667969 C 198.582031 136.667969 198.824219 136.382812 198.824219 136.015625 C 198.824219 135.6875 198.539062 135.402344 198.171875 135.402344 Z M 196.136719 135.566406 C 195.730469 135.566406 195.445312 135.894531 195.445312 136.261719 C 195.445312 136.667969 195.769531 136.953125 196.136719 136.953125 C 196.542969 136.953125 196.828125 136.628906 196.828125 136.261719 C 196.828125 135.894531 196.503906 135.566406 196.136719 135.566406 Z M 193.9375 135.730469 C 193.53125 135.730469 193.246094 136.054688 193.246094 136.421875 C 193.246094 136.832031 193.570312 137.117188 193.9375 137.117188 C 194.34375 137.117188 194.628906 136.789062 194.628906 136.421875 C 194.628906 136.054688 194.34375 135.730469 193.9375 135.730469 Z M 191.453125 135.894531 C 191.003906 135.894531 190.675781 136.261719 190.675781 136.667969 C 190.675781 137.117188 191.042969 137.441406 191.453125 137.441406 C 191.898438 137.441406 192.226562 137.074219 192.226562 136.667969 C 192.226562 136.21875 191.859375 135.851562 191.453125 135.894531 Z M 188.804688 135.894531 C 188.394531 135.894531 188.03125 136.261719 188.03125 136.667969 C 188.03125 137.074219 188.394531 137.441406 188.804688 137.441406 C 189.210938 137.441406 189.578125 137.074219 189.578125 136.667969 C 189.578125 136.261719 189.25 135.894531 188.804688 135.894531 Z M 173.609375 135.199219 C 173.894531 135.199219 174.097656 135.402344 174.097656 135.6875 C 174.097656 135.976562 173.894531 136.179688 173.609375 136.179688 C 173.324219 136.179688 173.121094 135.976562 173.121094 135.6875 C 173.121094 135.445312 173.363281 135.199219 173.609375 135.199219 Z M 175.117188 135.28125 C 175.480469 135.28125 175.765625 135.566406 175.765625 135.933594 C 175.765625 136.300781 175.480469 136.585938 175.117188 136.585938 C 174.75 136.585938 174.464844 136.300781 174.464844 135.933594 C 174.464844 135.566406 174.75 135.28125 175.117188 135.28125 Z M 176.867188 135.484375 C 177.234375 135.484375 177.519531 135.769531 177.519531 136.136719 C 177.519531 136.503906 177.234375 136.789062 176.867188 136.789062 C 176.5 136.789062 176.214844 136.503906 176.214844 136.136719 C 176.257812 135.769531 176.542969 135.484375 176.867188 135.484375 Z M 178.945312 135.609375 C 179.351562 135.609375 179.636719 135.933594 179.636719 136.300781 C 179.636719 136.707031 179.3125 136.996094 178.945312 136.996094 C 178.578125 136.996094 178.253906 136.667969 178.253906 136.300781 C 178.210938 135.933594 178.539062 135.609375 178.945312 135.609375 Z M 181.144531 135.769531 C 181.550781 135.769531 181.835938 136.097656 181.835938 136.464844 C 181.835938 136.871094 181.511719 137.15625 181.144531 137.15625 C 180.738281 137.15625 180.453125 136.832031 180.453125 136.464844 C 180.410156 136.097656 180.738281 135.769531 181.144531 135.769531 Z M 183.628906 135.894531 C 184.078125 135.894531 184.402344 136.261719 184.402344 136.667969 C 184.402344 137.117188 184.039062 137.441406 183.628906 137.441406 C 183.222656 137.441406 182.855469 137.074219 182.855469 136.667969 C 182.855469 136.21875 183.183594 135.894531 183.628906 135.894531 Z M 186.238281 135.894531 C 186.644531 135.894531 187.011719 136.21875 187.011719 136.667969 C 187.011719 137.074219 186.683594 137.441406 186.238281 137.441406 C 185.828125 137.441406 185.464844 137.117188 185.464844 136.667969 C 185.503906 136.21875 185.828125 135.894531 186.238281 135.894531 Z M 186.277344 196.964844 C 184.527344 195.539062 182.734375 194.761719 180.820312 195.128906 C 179.394531 195.457031 178.414062 196.679688 177.683594 198.597656 C 175.808594 202.554688 173.933594 205.289062 172.058594 206.269531 C 177.925781 205.738281 182.039062 205.003906 183.546875 203.902344 C 183.058594 206.226562 183.058594 208.550781 183.914062 210.835938 C 184.566406 213.285156 185.953125 214.140625 185.910156 218.222656 C 186.480469 214.710938 187.582031 214.34375 188.84375 212.101562 C 190.960938 208.757812 191.125 206.1875 190.351562 202.921875 C 191.695312 204.71875 194.464844 205.65625 197.398438 205.820312 C 199.191406 205.902344 201.230469 206.308594 203.144531 206.554688 C 201.308594 205.207031 199.964844 203.902344 198.703125 201.738281 C 197.808594 199.945312 197.074219 197.78125 195.6875 196.355469 C 194.996094 195.335938 193.488281 194.722656 191.613281 195.539062 C 190.1875 195.945312 189.375 196.597656 188.601562 197.292969 C 191.574219 197.292969 193.164062 198.71875 194.019531 200.921875 C 192.308594 198.800781 190.351562 197.660156 188.03125 198.191406 C 189.171875 202.269531 188.476562 205.328125 186.726562 207.816406 C 187.949219 204.269531 188.394531 200.921875 186.847656 198.027344 C 184.039062 197.699219 182.367188 199.128906 180.898438 200.800781 C 181.878906 198.515625 183.222656 197.128906 186.277344 196.964844 Z M 170.835938 127.734375 C 172.019531 132.222656 173.8125 131.488281 175.808594 126.632812 C 176.460938 126.347656 177.113281 125.9375 177.519531 125.121094 C 177.84375 124.550781 177.925781 124.019531 177.84375 123.449219 C 177.804688 123.164062 177.722656 123.042969 177.355469 123 C 177.476562 122.105469 177.273438 121.410156 176.746094 120.960938 C 175.890625 121.492188 175.402344 122.308594 175.320312 123.449219 C 174.992188 123.410156 174.789062 123.652344 174.667969 124.101562 C 174.546875 124.714844 174.625 125.285156 174.871094 125.898438 C 175.117188 126.265625 175.402344 126.550781 175.847656 126.632812 C 178.210938 133.199219 180.898438 131.488281 183.140625 126.265625 C 181.878906 125.773438 181.183594 124.917969 181.023438 123.734375 C 180.859375 122.839844 181.390625 122.265625 182 122.472656 C 182 120.757812 182.53125 120.105469 183.589844 120.144531 C 184.8125 120.226562 185.054688 121.042969 184.769531 122.308594 C 185.585938 122.144531 185.953125 122.59375 185.75 123.652344 C 185.339844 124.753906 184.484375 125.652344 183.183594 126.222656 C 184.933594 131.527344 189.292969 132.996094 191.898438 126.265625 C 193.164062 125.773438 193.894531 124.917969 194.058594 123.734375 C 194.222656 122.839844 193.691406 122.265625 193.082031 122.472656 C 193.082031 120.757812 192.550781 120.105469 191.492188 120.144531 C 190.3125 120.226562 190.027344 121.042969 190.3125 122.308594 C 189.496094 122.144531 189.128906 122.59375 189.332031 123.652344 C 189.742188 124.796875 190.597656 125.652344 191.941406 126.265625 C 194.628906 131.9375 196.871094 132.75 199.273438 126.835938 C 201.1875 131.488281 203.265625 132.261719 204.203125 127.816406 C 203.589844 126.632812 203.144531 125.613281 203.265625 124.632812 C 203.183594 124.101562 203.226562 123.734375 203.265625 123.246094 C 203.671875 123.652344 203.796875 124.183594 203.917969 124.632812 C 204.449219 125.980469 204.570312 126.796875 204.203125 127.816406 C 204.324219 128.957031 204.121094 130.425781 203.671875 132.058594 C 203.589844 132.015625 203.511719 131.9375 203.386719 131.9375 C 202.859375 132.058594 202.695312 132.507812 202.65625 133.039062 C 202.328125 132.996094 202.164062 133.160156 202.207031 133.484375 C 202.289062 133.976562 202.449219 134.300781 202.859375 134.546875 L 202.859375 134.585938 C 192.632812 136.097656 182.324219 136.261719 171.898438 134.667969 L 171.898438 134.628906 C 172.425781 134.382812 172.792969 134.058594 172.835938 133.445312 C 172.835938 133.078125 172.875 132.832031 172.386719 132.914062 C 172.304688 132.261719 172.058594 131.9375 171.570312 131.894531 C 171.449219 131.976562 171.328125 132.058594 171.246094 132.140625 C 171 130.753906 170.878906 129.324219 170.835938 127.734375 L 170.796875 127.816406 C 170.472656 126.875 170.59375 126.101562 171.121094 124.835938 C 171.285156 124.386719 171.40625 123.898438 171.773438 123.53125 C 171.816406 124.019531 171.816406 124.347656 171.734375 124.835938 C 171.816406 125.734375 171.40625 126.671875 170.835938 127.734375 Z M 171.285156 125 L 171.449219 125 L 171.449219 124.632812 C 171.449219 124.59375 171.328125 124.917969 171.285156 125 Z M 175.808594 123.125 L 176.785156 123.042969 L 176.542969 121.816406 Z M 184.242188 122.347656 L 183.46875 120.839844 L 182.53125 122.472656 Z M 190.839844 122.347656 L 192.550781 122.472656 L 191.613281 120.839844 Z M 199.804688 123.410156 C 199.722656 122.265625 199.234375 121.449219 198.378906 120.921875 C 197.847656 121.371094 197.601562 122.0625 197.765625 122.960938 C 197.359375 123 197.316406 123.125 197.277344 123.410156 C 197.195312 123.941406 197.277344 124.511719 197.601562 125.082031 C 198.011719 125.898438 198.664062 126.304688 199.3125 126.589844 C 199.761719 126.507812 200.046875 126.222656 200.292969 125.855469 C 200.535156 125.285156 200.617188 124.675781 200.496094 124.0625 C 200.332031 123.613281 200.089844 123.367188 199.804688 123.410156 Z M 199.273438 123.082031 L 198.539062 121.777344 L 198.296875 123 Z M 203.796875 124.835938 C 203.753906 124.796875 203.589844 124.429688 203.589844 124.429688 L 203.589844 124.835938 Z M 202.207031 136.261719 C 201.800781 137.238281 201.351562 138.257812 200.863281 139.320312 C 192.386719 141.402344 183.46875 141.5625 174.015625 139.320312 C 173.40625 138.257812 172.914062 137.238281 172.507812 136.300781 C 182.570312 138.136719 192.429688 137.890625 202.207031 136.261719 Z M 178.414062 133.039062 C 178.089844 133.039062 177.925781 133.199219 178.007812 133.527344 C 178.128906 134.097656 178.375 134.425781 178.984375 134.667969 C 179.554688 134.464844 179.964844 134.21875 180.085938 133.648438 C 180.125 133.28125 180.207031 133.039062 179.71875 133.039062 C 179.71875 132.382812 179.515625 132.015625 179.066406 131.894531 C 178.539062 132.058594 178.414062 132.507812 178.414062 133.039062 Z M 178.902344 132.671875 C 178.824219 132.671875 178.78125 132.710938 178.78125 132.792969 C 178.824219 132.957031 178.902344 133.039062 179.027344 133.117188 C 179.1875 133.078125 179.269531 132.996094 179.3125 132.832031 C 179.3125 132.75 179.351562 132.671875 179.230469 132.671875 C 179.230469 132.507812 179.1875 132.382812 179.066406 132.382812 C 178.945312 132.425781 178.902344 132.546875 178.902344 132.671875 Z M 186.847656 133.117188 C 186.523438 133.117188 186.320312 133.324219 186.398438 133.648438 C 186.5625 134.261719 186.808594 134.628906 187.5 134.914062 C 188.109375 134.710938 188.601562 134.425781 188.722656 133.773438 C 188.761719 133.363281 188.84375 133.078125 188.316406 133.117188 C 188.355469 132.425781 188.109375 131.976562 187.582031 131.855469 C 186.96875 132.015625 186.847656 132.507812 186.847656 133.117188 Z M 187.335938 132.710938 C 187.253906 132.710938 187.175781 132.75 187.214844 132.875 C 187.253906 133.039062 187.335938 133.160156 187.5 133.199219 C 187.664062 133.160156 187.785156 133.078125 187.824219 132.875 C 187.824219 132.75 187.867188 132.710938 187.703125 132.710938 C 187.703125 132.507812 187.664062 132.382812 187.5 132.382812 C 187.378906 132.425781 187.335938 132.589844 187.335938 132.710938 Z M 195.28125 132.914062 C 194.957031 132.914062 194.792969 133.078125 194.875 133.40625 C 194.996094 133.976562 195.242188 134.300781 195.851562 134.546875 C 196.421875 134.34375 196.828125 134.097656 196.953125 133.527344 C 196.992188 133.160156 197.074219 132.914062 196.585938 132.914062 C 196.585938 132.261719 196.382812 131.894531 195.933594 131.773438 C 195.402344 131.976562 195.28125 132.425781 195.28125 132.914062 Z M 195.730469 132.589844 C 195.648438 132.589844 195.605469 132.628906 195.605469 132.710938 C 195.648438 132.875 195.730469 132.957031 195.851562 133.039062 C 196.015625 132.996094 196.097656 132.914062 196.136719 132.75 C 196.136719 132.671875 196.175781 132.589844 196.054688 132.589844 C 196.054688 132.425781 196.015625 132.304688 195.890625 132.304688 C 195.769531 132.34375 195.730469 132.464844 195.730469 132.589844 Z M 203.511719 132.671875 C 203.511719 132.589844 203.429688 132.507812 203.347656 132.464844 C 203.183594 132.507812 203.144531 132.628906 203.144531 132.75 C 203.0625 132.75 203.019531 132.792969 203.019531 132.875 C 203.0625 133.039062 203.101562 133.117188 203.265625 133.199219 L 203.347656 133.199219 C 203.386719 132.996094 203.46875 132.832031 203.511719 132.671875 Z M 171.53125 132.710938 C 171.449219 132.710938 171.40625 132.792969 171.449219 132.832031 C 171.488281 132.996094 171.570312 133.039062 171.734375 133.117188 C 171.855469 133.039062 171.980469 132.957031 171.980469 132.792969 C 171.980469 132.671875 171.980469 132.628906 171.855469 132.628906 C 171.855469 132.464844 171.773438 132.34375 171.652344 132.34375 C 171.53125 132.464844 171.488281 132.589844 171.53125 132.710938 Z M 152.75 200.761719 C 153.199219 200.761719 153.566406 200.394531 153.566406 199.945312 C 153.566406 199.496094 153.199219 199.128906 152.75 199.128906 C 152.300781 199.128906 151.933594 199.496094 151.933594 199.945312 C 151.976562 200.394531 152.300781 200.761719 152.75 200.761719 Z M 222.25 200.761719 C 221.800781 200.761719 221.433594 200.394531 221.433594 199.945312 C 221.433594 199.496094 221.800781 199.128906 222.25 199.128906 C 222.699219 199.128906 223.066406 199.496094 223.066406 199.945312 C 223.066406 200.394531 222.699219 200.761719 222.25 200.761719 Z M 262.5 240.824219 C 252.398438 241.71875 245.429688 237.476562 238.628906 228.664062 L 225.875 211.328125 C 222.25 206.796875 217.933594 202.390625 212.433594 199.375 C 217.035156 202.597656 222.65625 206.269531 224.367188 214.917969 C 225.347656 222.628906 221.84375 229.890625 216.832031 232.011719 C 213.289062 233.804688 207.339844 233.152344 203.429688 230.257812 C 210.3125 234.089844 217.808594 231.234375 220.253906 227.359375 C 224.207031 221.242188 223.714844 213.203125 220.785156 209.125 C 220.5 208.675781 220.171875 208.265625 219.847656 207.816406 C 224.734375 218.261719 219.644531 230.050781 206.972656 229.480469 C 207.015625 228.789062 207.828125 227.605469 208.886719 227.074219 C 210.84375 225.890625 212.878906 224.871094 214.753906 223.484375 C 217.566406 221.527344 219.644531 219.078125 220.292969 215.652344 C 220.621094 212.957031 220.050781 209.980469 218.949219 206.757812 C 218.011719 205.613281 216.996094 204.554688 215.894531 203.574219 C 216.792969 204.839844 217.320312 207.289062 217.15625 208.675781 C 216.34375 212.265625 214.796875 212.875 213.492188 213.285156 C 211.820312 213.773438 210.476562 213.40625 209.417969 212.304688 C 208.277344 211.042969 208.359375 209.246094 209.375 208.347656 C 210.800781 207.328125 212.1875 207.207031 213.410156 208.308594 C 211.332031 207.898438 209.742188 208.144531 209.296875 210.019531 C 209.253906 211.328125 210.027344 212.183594 211.25 212.714844 C 213.410156 212.957031 214.796875 212.144531 215.730469 210.796875 C 216.914062 209.082031 216.585938 206.675781 215.8125 205.167969 C 215.160156 203.820312 214.183594 202.757812 213.207031 201.945312 C 204.367188 196.679688 198.253906 194.355469 187.539062 193.5 C 176.828125 194.355469 170.714844 196.679688 161.875 201.945312 C 160.855469 202.757812 159.878906 203.820312 159.269531 205.167969 C 158.492188 206.675781 158.207031 209.082031 159.347656 210.796875 C 160.285156 212.144531 161.671875 212.957031 163.832031 212.714844 C 165.054688 212.183594 165.828125 211.328125 165.785156 210.019531 C 165.339844 208.183594 163.75 207.898438 161.671875 208.308594 C 162.933594 207.207031 164.277344 207.328125 165.703125 208.347656 C 166.683594 209.207031 166.804688 211 165.664062 212.304688 C 164.605469 213.40625 163.261719 213.773438 161.589844 213.285156 C 160.285156 212.917969 158.738281 212.265625 157.921875 208.675781 C 157.71875 207.289062 158.289062 204.839844 159.1875 203.574219 C 158.085938 204.59375 157.066406 205.65625 156.132812 206.757812 C 155.03125 209.980469 154.460938 212.957031 154.785156 215.652344 C 155.480469 219.078125 157.558594 221.527344 160.328125 223.484375 C 162.242188 224.871094 164.238281 225.890625 166.195312 227.074219 C 167.253906 227.644531 168.066406 228.789062 168.109375 229.480469 C 155.4375 230.050781 150.347656 218.261719 155.234375 207.816406 C 154.910156 208.226562 154.582031 208.675781 154.296875 209.125 C 151.363281 213.203125 150.875 221.242188 154.828125 227.359375 C 157.230469 231.195312 164.769531 234.050781 171.652344 230.257812 C 167.742188 233.152344 161.792969 233.804688 158.25 232.011719 C 153.199219 229.890625 149.734375 222.628906 150.714844 214.917969 C 152.382812 206.308594 158.046875 202.597656 162.648438 199.375 C 157.148438 202.390625 152.832031 206.796875 149.207031 211.328125 L 136.414062 228.707031 C 129.652344 237.519531 122.644531 241.761719 112.539062 240.863281 C 117.347656 240.617188 121.789062 239.230469 125.738281 236.292969 C 130.304688 233.03125 134.296875 228.910156 137.921875 224.136719 C 141.628906 219.730469 144.234375 214.875 147.859375 210.753906 C 146.476562 211.449219 143.949219 211.652344 142.566406 211.246094 C 139.101562 209.898438 138.695312 208.265625 138.492188 206.878906 C 138.246094 205.167969 138.816406 203.859375 140.082031 202.964844 C 141.546875 201.984375 143.296875 202.351562 144.03125 203.492188 C 144.847656 205.085938 144.765625 206.472656 143.503906 207.53125 C 144.234375 205.535156 144.195312 203.859375 142.402344 203.167969 C 141.097656 202.964844 140.160156 203.574219 139.429688 204.757812 C 138.859375 206.921875 139.46875 208.390625 140.691406 209.53125 C 142.199219 210.960938 144.683594 211 146.3125 210.46875 C 147.738281 210.019531 148.960938 209.207031 149.898438 208.308594 C 157.066406 199.210938 167.335938 194.96875 173.28125 193.867188 C 165.582031 194.925781 158.085938 197.578125 150.875 203.453125 C 153.238281 200.554688 156.742188 198.148438 161.0625 196.355469 C 160.980469 196.355469 160.898438 196.394531 160.855469 196.394531 C 160.246094 196.394531 159.757812 195.90625 159.757812 195.292969 C 159.757812 194.679688 160.246094 194.191406 160.855469 194.191406 C 161.46875 194.191406 161.957031 194.679688 161.957031 195.292969 C 161.957031 195.703125 161.753906 196.027344 161.46875 196.230469 C 162.039062 195.988281 162.609375 195.78125 163.21875 195.578125 L 163.058594 195.578125 C 162.40625 195.578125 161.875 195.046875 161.875 194.394531 C 161.875 193.742188 162.40625 193.210938 163.058594 193.210938 C 163.707031 193.210938 164.238281 193.742188 164.238281 194.394531 C 164.238281 194.84375 163.992188 195.210938 163.628906 195.414062 C 170.265625 193.171875 178.539062 192.316406 187.664062 193.253906 C 196.789062 192.316406 205.058594 193.171875 211.699219 195.414062 C 211.332031 195.210938 211.085938 194.84375 211.085938 194.394531 C 211.085938 193.742188 211.617188 193.210938 212.269531 193.210938 C 212.921875 193.210938 213.449219 193.742188 213.449219 194.394531 C 213.449219 195.046875 212.921875 195.578125 212.269531 195.578125 L 212.105469 195.578125 C 212.71875 195.78125 213.289062 195.988281 213.859375 196.230469 C 213.574219 196.027344 213.367188 195.703125 213.367188 195.292969 C 213.367188 194.679688 213.859375 194.191406 214.46875 194.191406 C 215.082031 194.191406 215.570312 194.679688 215.570312 195.292969 C 215.570312 195.90625 215.082031 196.394531 214.46875 196.394531 C 214.386719 196.394531 214.304688 196.394531 214.265625 196.355469 C 218.582031 198.148438 222.046875 200.554688 224.449219 203.453125 C 217.238281 197.578125 209.703125 194.925781 202.042969 193.867188 C 207.949219 194.96875 218.257812 199.210938 225.425781 208.308594 C 226.363281 209.207031 227.585938 210.019531 229.011719 210.46875 C 230.640625 211.042969 233.085938 210.960938 234.632812 209.53125 C 235.855469 208.390625 236.46875 206.921875 235.898438 204.757812 C 235.164062 203.617188 234.226562 202.964844 232.921875 203.167969 C 231.132812 203.902344 231.132812 205.535156 231.824219 207.53125 C 230.519531 206.429688 230.480469 205.085938 231.292969 203.492188 C 232.027344 202.390625 233.777344 202.023438 235.246094 202.964844 C 236.507812 203.859375 237.039062 205.167969 236.835938 206.878906 C 236.632812 208.226562 236.265625 209.898438 232.761719 211.246094 C 231.375 211.652344 228.890625 211.449219 227.464844 210.753906 C 231.089844 214.875 233.65625 219.730469 237.40625 224.136719 C 241.03125 228.871094 245.023438 233.03125 249.585938 236.292969 C 253.253906 239.191406 257.691406 240.578125 262.5 240.824219 Z M 224.898438 215.8125 C 225.304688 220.21875 224.855469 224.21875 222.941406 227.5625 C 221.070312 230.378906 218.828125 232.621094 215.730469 234.539062 C 214.429688 235.234375 215.773438 236.007812 216.792969 235.640625 C 220.335938 233.847656 222.128906 231.03125 223.636719 228.011719 C 225.792969 223.972656 225.632812 218.382812 224.898438 215.8125 Z M 228.566406 219.199219 C 231.007812 227.480469 234.796875 234.664062 239.890625 240.863281 C 240.867188 242.332031 243.761719 241.558594 241.722656 239.070312 C 234.308594 232.335938 230.640625 225.523438 228.566406 219.199219 Z M 252.519531 200.3125 C 251.703125 204.511719 250.644531 208.675781 247.140625 211.246094 C 242.457031 216.140625 232.921875 214.386719 231.050781 212.589844 C 233.492188 215.8125 243.921875 216.957031 248.648438 212.835938 C 252.925781 209.941406 253.617188 205.613281 252.519531 200.3125 Z M 216.871094 205.410156 C 217.726562 207.53125 217.769531 209.652344 216.222656 211.734375 C 214.753906 213.285156 214.019531 214.792969 214.835938 216.101562 C 215.445312 216.710938 216.425781 216.46875 216.871094 215.40625 C 216.996094 215.039062 216.507812 214.753906 216.300781 215.078125 C 215.570312 216.507812 214.835938 215.285156 215.445312 214.589844 C 220.417969 210.347656 219.316406 207.695312 216.871094 205.410156 Z M 229.339844 211.53125 C 231.988281 213.609375 234.757812 214.265625 238.136719 208.675781 C 238.707031 207.941406 240.054688 208.472656 238.75 209.410156 C 238.464844 209.695312 238.871094 210.101562 239.199219 209.941406 C 240.175781 209.328125 240.257812 208.308594 239.5625 207.816406 C 238.136719 207.207031 236.792969 208.144531 235.488281 209.859375 C 233.65625 211.734375 231.578125 212.019531 229.339844 211.53125 Z M 227.667969 228.175781 C 227.832031 226.585938 228.117188 224.75 228.074219 222.710938 C 227.710938 218.914062 226.933594 216.34375 225.917969 214.304688 C 226.691406 217.078125 226.933594 219.933594 226.855469 222.585938 C 226.894531 224.421875 226.363281 227.523438 227.667969 228.175781 Z M 243.882812 222.546875 C 239.15625 220.710938 235.042969 218.222656 231.457031 215.039062 C 232.800781 217.121094 234.390625 218.996094 236.792969 220.261719 C 238.953125 221.527344 241.316406 222.261719 243.882812 222.546875 Z M 252.476562 225.238281 C 251.09375 222.996094 247.140625 220.628906 244.410156 222.75 C 245.550781 225.851562 248.894531 226.339844 252.476562 225.238281 Z M 228.851562 235.109375 C 229.992188 233.398438 230.316406 229.5625 227.914062 228.421875 C 226.039062 230.296875 226.730469 232.949219 228.851562 235.109375 Z M 198.253906 192.96875 C 198.664062 192.96875 198.988281 192.640625 198.988281 192.234375 C 198.988281 191.824219 198.664062 191.5 198.253906 191.5 C 197.847656 191.5 197.523438 191.824219 197.523438 192.234375 C 197.523438 192.640625 197.847656 192.96875 198.253906 192.96875 Z M 200.984375 193.089844 C 201.433594 193.089844 201.800781 192.722656 201.800781 192.273438 C 201.800781 191.824219 201.433594 191.457031 200.984375 191.457031 C 200.535156 191.457031 200.167969 191.824219 200.167969 192.273438 C 200.128906 192.722656 200.496094 193.089844 200.984375 193.089844 Z M 203.796875 193.417969 C 204.324219 193.417969 204.773438 192.96875 204.773438 192.4375 C 204.773438 191.90625 204.324219 191.457031 203.796875 191.457031 C 203.265625 191.457031 202.816406 191.90625 202.816406 192.4375 C 202.816406 193.007812 203.265625 193.417969 203.796875 193.417969 Z M 206.605469 193.867188 C 207.175781 193.867188 207.664062 193.375 207.664062 192.804688 C 207.664062 192.234375 207.175781 191.742188 206.605469 191.742188 C 206.035156 191.742188 205.546875 192.234375 205.546875 192.804688 C 205.546875 193.375 206.035156 193.867188 206.605469 193.867188 Z M 209.335938 194.519531 C 209.945312 194.519531 210.4375 194.027344 210.4375 193.417969 C 210.4375 192.804688 209.945312 192.316406 209.335938 192.316406 C 208.726562 192.316406 208.234375 192.804688 208.234375 193.417969 C 208.234375 194.027344 208.726562 194.519531 209.335938 194.519531 Z M 216.382812 197.292969 C 216.953125 197.292969 217.441406 196.804688 217.441406 196.230469 C 217.441406 195.660156 216.953125 195.171875 216.382812 195.171875 C 215.8125 195.171875 215.324219 195.660156 215.324219 196.230469 C 215.324219 196.804688 215.8125 197.292969 216.382812 197.292969 Z M 218.460938 198.273438 C 218.992188 198.273438 219.398438 197.863281 219.398438 197.332031 C 219.398438 196.804688 218.992188 196.394531 218.460938 196.394531 C 217.933594 196.394531 217.523438 196.804688 217.523438 197.332031 C 217.523438 197.824219 217.933594 198.273438 218.460938 198.273438 Z M 220.417969 199.375 C 220.90625 199.375 221.273438 199.007812 221.273438 198.515625 C 221.273438 198.027344 220.90625 197.660156 220.417969 197.660156 C 219.929688 197.660156 219.5625 198.027344 219.5625 198.515625 C 219.5625 199.007812 219.929688 199.375 220.417969 199.375 Z M 150.101562 215.8125 C 149.367188 218.34375 149.207031 223.972656 151.363281 228.011719 C 152.832031 231.03125 154.664062 233.847656 158.207031 235.640625 C 159.269531 236.007812 160.570312 235.234375 159.269531 234.539062 C 156.171875 232.621094 153.929688 230.339844 152.058594 227.5625 C 150.183594 224.21875 149.734375 220.21875 150.101562 215.8125 Z M 146.433594 219.199219 C 144.359375 225.523438 140.691406 232.335938 133.277344 239.070312 C 131.238281 241.515625 134.132812 242.332031 135.109375 240.863281 C 140.203125 234.664062 144.03125 227.480469 146.433594 219.199219 Z M 122.523438 200.3125 C 121.382812 205.613281 122.113281 209.941406 126.390625 212.875 C 131.117188 216.996094 141.546875 215.8125 143.992188 212.632812 C 142.117188 214.425781 132.585938 216.140625 127.898438 211.285156 C 124.394531 208.675781 123.296875 204.511719 122.523438 200.3125 Z M 158.167969 205.410156 C 155.683594 207.695312 154.582031 210.347656 159.554688 214.550781 C 160.164062 215.242188 159.429688 216.46875 158.699219 215.039062 C 158.453125 214.710938 157.964844 215.039062 158.128906 215.367188 C 158.574219 216.425781 159.554688 216.671875 160.164062 216.058594 C 160.980469 214.753906 160.285156 213.242188 158.777344 211.695312 C 157.273438 209.652344 157.3125 207.53125 158.167969 205.410156 Z M 145.660156 211.53125 C 143.421875 212.019531 141.34375 211.734375 139.550781 209.859375 C 138.246094 208.144531 136.902344 207.207031 135.476562 207.816406 C 134.785156 208.308594 134.867188 209.328125 135.84375 209.941406 C 136.167969 210.144531 136.535156 209.695312 136.292969 209.410156 C 135.027344 208.472656 136.332031 207.941406 136.902344 208.675781 C 140.203125 214.265625 143.011719 213.609375 145.660156 211.53125 Z M 147.332031 228.175781 C 148.59375 227.523438 148.105469 224.421875 148.144531 222.628906 C 148.023438 219.933594 148.269531 217.121094 149.082031 214.34375 C 148.066406 216.386719 147.289062 218.914062 146.925781 222.75 C 146.882812 224.75 147.167969 226.585938 147.332031 228.175781 Z M 131.117188 222.546875 C 133.644531 222.261719 136.046875 221.527344 138.207031 220.300781 C 140.609375 219.039062 142.199219 217.160156 143.542969 215.078125 C 139.957031 218.179688 135.84375 220.710938 131.117188 222.546875 Z M 122.523438 225.238281 C 126.105469 226.339844 129.449219 225.851562 130.589844 222.75 C 127.859375 220.628906 123.949219 222.953125 122.523438 225.238281 Z M 146.148438 235.109375 C 148.269531 232.949219 148.960938 230.257812 147.085938 228.421875 C 144.683594 229.5625 145.007812 233.398438 146.148438 235.109375 Z M 176.746094 192.96875 C 177.152344 192.96875 177.476562 192.640625 177.476562 192.234375 C 177.476562 191.824219 177.152344 191.5 176.746094 191.5 C 176.335938 191.5 176.011719 191.824219 176.011719 192.234375 C 176.011719 192.640625 176.335938 192.96875 176.746094 192.96875 Z M 174.015625 193.089844 C 174.464844 193.089844 174.832031 192.722656 174.832031 192.273438 C 174.832031 191.824219 174.464844 191.457031 174.015625 191.457031 C 173.566406 191.457031 173.199219 191.824219 173.199219 192.273438 C 173.199219 192.722656 173.566406 193.089844 174.015625 193.089844 Z M 171.203125 193.417969 C 171.734375 193.417969 172.183594 192.96875 172.183594 192.4375 C 172.183594 191.90625 171.734375 191.457031 171.203125 191.457031 C 170.675781 191.457031 170.226562 191.90625 170.226562 192.4375 C 170.226562 193.007812 170.675781 193.417969 171.203125 193.417969 Z M 168.394531 193.867188 C 168.964844 193.867188 169.453125 193.375 169.453125 192.804688 C 169.453125 192.234375 168.964844 191.742188 168.394531 191.742188 C 167.824219 191.742188 167.335938 192.234375 167.335938 192.804688 C 167.375 193.375 167.824219 193.867188 168.394531 193.867188 Z M 165.703125 194.519531 C 166.316406 194.519531 166.804688 194.027344 166.804688 193.417969 C 166.804688 192.804688 166.316406 192.316406 165.703125 192.316406 C 165.09375 192.316406 164.605469 192.804688 164.605469 193.417969 C 164.605469 194.027344 165.09375 194.519531 165.703125 194.519531 Z M 158.617188 197.292969 C 159.1875 197.292969 159.675781 196.804688 159.675781 196.230469 C 159.675781 195.660156 159.1875 195.171875 158.617188 195.171875 C 158.046875 195.171875 157.558594 195.660156 157.558594 196.230469 C 157.558594 196.804688 158.046875 197.292969 158.617188 197.292969 Z M 156.539062 198.273438 C 157.066406 198.273438 157.476562 197.863281 157.476562 197.332031 C 157.476562 196.804688 157.066406 196.394531 156.539062 196.394531 C 156.007812 196.394531 155.601562 196.804688 155.601562 197.332031 C 155.601562 197.824219 156.050781 198.273438 156.539062 198.273438 Z M 154.582031 199.375 C 155.070312 199.375 155.4375 199.007812 155.4375 198.515625 C 155.4375 198.027344 155.070312 197.660156 154.582031 197.660156 C 154.09375 197.660156 153.726562 198.027344 153.726562 198.515625 C 153.726562 199.007812 154.09375 199.375 154.582031 199.375 Z M 222.210938 136.34375 C 221.761719 136.34375 221.394531 136.707031 221.394531 137.15625 C 221.394531 137.605469 221.761719 137.972656 222.210938 137.972656 C 222.65625 137.972656 223.023438 137.605469 223.023438 137.15625 C 223.023438 136.707031 222.65625 136.34375 222.210938 136.34375 Z M 262.460938 96.277344 C 252.355469 95.382812 245.390625 99.625 238.585938 108.4375 L 225.835938 125.816406 C 222.210938 130.34375 217.890625 134.75 212.390625 137.769531 C 216.996094 134.546875 222.617188 130.875 224.328125 122.226562 C 225.304688 114.515625 221.800781 107.253906 216.792969 105.132812 C 213.246094 103.335938 207.300781 103.988281 203.386719 106.886719 C 210.273438 103.050781 217.769531 105.90625 220.214844 109.78125 C 224.164062 115.902344 223.675781 123.941406 220.742188 128.019531 C 220.457031 128.46875 220.132812 128.875 219.804688 129.324219 C 224.695312 118.878906 219.601562 107.089844 206.933594 107.660156 C 206.972656 108.355469 207.789062 109.539062 208.847656 110.070312 C 210.800781 111.25 212.839844 112.273438 214.714844 113.660156 C 217.523438 115.617188 219.601562 118.066406 220.253906 121.492188 C 220.578125 124.183594 220.007812 127.164062 218.910156 130.386719 C 217.972656 131.527344 216.953125 132.589844 215.855469 133.566406 C 216.75 132.304688 217.28125 129.855469 217.117188 128.46875 C 216.300781 124.878906 214.753906 124.265625 213.449219 123.859375 C 211.78125 123.367188 210.4375 123.734375 209.375 124.835938 C 208.234375 126.101562 208.316406 127.898438 209.335938 128.792969 C 210.761719 129.8125 212.148438 129.9375 213.367188 128.835938 C 211.292969 129.242188 209.703125 129 209.253906 127.121094 C 209.214844 125.816406 209.988281 124.960938 211.210938 124.429688 C 213.367188 124.183594 214.753906 125 215.691406 126.347656 C 216.871094 128.058594 216.546875 130.46875 215.773438 131.976562 C 215.121094 133.324219 214.144531 134.382812 213.164062 135.199219 C 204.324219 140.460938 198.214844 142.789062 187.5 143.644531 C 176.785156 142.789062 170.675781 140.460938 161.835938 135.199219 C 160.816406 134.382812 159.839844 133.324219 159.226562 131.976562 C 158.453125 130.46875 158.167969 128.058594 159.308594 126.347656 C 160.246094 125 161.632812 124.183594 163.789062 124.429688 C 165.011719 124.960938 165.785156 125.816406 165.746094 127.121094 C 165.296875 128.957031 163.707031 129.242188 161.632812 128.835938 C 162.894531 129.9375 164.238281 129.8125 165.664062 128.792969 C 166.640625 127.9375 166.765625 126.144531 165.625 124.835938 C 164.5625 123.734375 163.21875 123.367188 161.550781 123.859375 C 160.246094 124.226562 158.699219 124.878906 157.882812 128.46875 C 157.679688 129.855469 158.25 132.304688 159.144531 133.566406 C 158.046875 132.546875 157.027344 131.488281 156.089844 130.386719 C 154.992188 127.164062 154.421875 124.183594 154.746094 121.492188 C 155.4375 118.066406 157.515625 115.617188 160.285156 113.660156 C 162.203125 112.273438 164.199219 111.25 166.152344 110.070312 C 167.210938 109.496094 168.027344 108.355469 168.066406 107.660156 C 155.398438 107.089844 150.304688 118.878906 155.195312 129.324219 C 154.867188 128.917969 154.542969 128.46875 154.257812 128.019531 C 151.324219 123.941406 150.835938 115.902344 154.785156 109.78125 C 157.191406 105.949219 164.726562 103.09375 171.613281 106.886719 C 167.699219 103.988281 161.753906 103.335938 158.207031 105.132812 C 153.15625 107.253906 149.695312 114.515625 150.671875 122.226562 C 152.34375 130.835938 158.003906 134.546875 162.609375 137.769531 C 157.109375 134.75 152.789062 130.34375 149.164062 125.816406 L 136.371094 108.4375 C 129.609375 99.625 122.601562 95.382812 112.5 96.277344 C 117.308594 96.523438 121.746094 97.910156 125.699219 100.847656 C 130.261719 104.113281 134.253906 108.234375 137.878906 113.007812 C 141.585938 117.410156 144.195312 122.265625 147.820312 126.386719 C 146.433594 125.695312 143.910156 125.488281 142.523438 125.898438 C 139.0625 127.242188 138.652344 128.875 138.449219 130.261719 C 138.207031 131.976562 138.777344 133.28125 140.039062 134.179688 C 141.507812 135.160156 143.257812 134.792969 143.992188 133.648438 C 144.804688 132.058594 144.722656 130.671875 143.460938 129.609375 C 144.195312 131.609375 144.152344 133.28125 142.363281 133.976562 C 141.058594 134.179688 140.121094 133.566406 139.386719 132.382812 C 138.816406 130.222656 139.429688 128.753906 140.652344 127.609375 C 142.15625 126.183594 144.644531 126.144531 146.273438 126.671875 C 147.699219 127.121094 148.921875 127.9375 149.855469 128.835938 C 157.027344 137.933594 167.292969 142.175781 173.242188 143.277344 C 165.542969 142.214844 158.046875 139.566406 150.835938 133.691406 C 153.199219 136.585938 156.703125 138.992188 161.019531 140.789062 C 160.9375 140.789062 160.855469 140.746094 160.816406 140.746094 C 160.203125 140.746094 159.714844 141.238281 159.714844 141.847656 C 159.714844 142.460938 160.203125 142.949219 160.816406 142.949219 C 161.425781 142.949219 161.917969 142.460938 161.917969 141.847656 C 161.917969 141.441406 161.710938 141.113281 161.425781 140.910156 C 161.996094 141.15625 162.566406 141.359375 163.179688 141.5625 L 163.015625 141.5625 C 162.363281 141.5625 161.835938 142.09375 161.835938 142.746094 C 161.835938 143.398438 162.363281 143.929688 163.015625 143.929688 C 163.667969 143.929688 164.199219 143.398438 164.199219 142.746094 C 164.199219 142.296875 163.953125 141.929688 163.585938 141.726562 C 170.226562 143.972656 178.496094 144.828125 187.621094 143.890625 C 196.746094 144.828125 205.019531 143.972656 211.65625 141.726562 C 211.292969 141.929688 211.046875 142.296875 211.046875 142.746094 C 211.046875 143.398438 211.578125 143.929688 212.226562 143.929688 C 212.878906 143.929688 213.410156 143.398438 213.410156 142.746094 C 213.410156 142.09375 212.878906 141.5625 212.226562 141.5625 L 212.066406 141.5625 C 212.675781 141.359375 213.246094 141.15625 213.816406 140.910156 C 213.53125 141.113281 213.328125 141.441406 213.328125 141.847656 C 213.328125 142.460938 213.816406 142.949219 214.429688 142.949219 C 215.039062 142.949219 215.527344 142.460938 215.527344 141.847656 C 215.527344 141.238281 215.039062 140.746094 214.429688 140.746094 C 214.347656 140.746094 214.265625 140.746094 214.222656 140.789062 C 218.542969 138.992188 222.003906 136.585938 224.410156 133.691406 C 217.199219 139.566406 209.660156 142.214844 202.003906 143.277344 C 207.910156 142.175781 218.21875 137.933594 225.386719 128.835938 C 226.324219 127.9375 227.546875 127.121094 228.972656 126.671875 C 230.601562 126.101562 233.046875 126.183594 234.59375 127.609375 C 235.816406 128.753906 236.425781 130.222656 235.855469 132.382812 C 235.125 133.527344 234.1875 134.179688 232.882812 133.976562 C 231.089844 133.242188 231.089844 131.609375 231.78125 129.609375 C 230.480469 130.710938 230.4375 132.058594 231.253906 133.648438 C 231.988281 134.75 233.738281 135.117188 235.203125 134.179688 C 236.46875 133.28125 236.996094 131.976562 236.792969 130.261719 C 236.589844 128.917969 236.222656 127.242188 232.71875 125.898438 C 231.335938 125.488281 228.851562 125.695312 227.425781 126.386719 C 231.050781 122.265625 233.617188 117.410156 237.363281 113.007812 C 240.988281 108.273438 244.980469 104.113281 249.546875 100.847656 C 253.210938 97.910156 257.652344 96.523438 262.460938 96.277344 Z M 224.855469 121.289062 C 225.265625 116.882812 224.816406 112.882812 222.902344 109.539062 C 221.027344 106.722656 218.789062 104.480469 215.691406 102.5625 C 214.386719 101.867188 215.730469 101.09375 216.75 101.460938 C 220.292969 103.253906 222.085938 106.070312 223.59375 109.089844 C 225.753906 113.128906 225.589844 118.757812 224.855469 121.289062 Z M 228.523438 117.902344 C 230.96875 109.621094 234.757812 102.441406 239.847656 96.238281 C 240.828125 94.769531 243.71875 95.542969 241.683594 98.035156 C 234.308594 104.804688 230.601562 111.578125 228.523438 117.902344 Z M 252.476562 136.789062 C 251.664062 132.589844 250.605469 128.425781 247.101562 125.855469 C 242.414062 120.960938 232.882812 122.714844 231.007812 124.511719 C 233.453125 121.289062 243.882812 120.144531 248.609375 124.265625 C 252.886719 127.203125 253.617188 131.488281 252.476562 136.789062 Z M 216.832031 131.730469 C 217.6875 129.609375 217.726562 127.488281 216.179688 125.410156 C 214.714844 123.859375 213.980469 122.347656 214.796875 121.042969 C 215.40625 120.429688 216.382812 120.675781 216.832031 121.738281 C 216.953125 122.105469 216.464844 122.390625 216.261719 122.0625 C 215.527344 120.636719 214.796875 121.859375 215.40625 122.550781 C 220.417969 126.796875 219.316406 129.445312 216.832031 131.730469 Z M 229.339844 125.570312 C 231.988281 123.492188 234.757812 122.839844 238.136719 128.425781 C 238.707031 129.160156 240.054688 128.632812 238.75 127.691406 C 238.464844 127.40625 238.871094 127 239.199219 127.164062 C 240.175781 127.773438 240.257812 128.792969 239.5625 129.285156 C 238.136719 129.894531 236.792969 128.957031 235.488281 127.242188 C 233.65625 125.410156 231.578125 125.082031 229.339844 125.570312 Z M 227.628906 108.925781 C 227.789062 110.515625 228.074219 112.351562 228.035156 114.394531 C 227.667969 118.1875 226.894531 120.757812 225.875 122.796875 C 226.648438 120.023438 226.894531 117.167969 226.8125 114.515625 C 226.855469 112.679688 226.363281 109.578125 227.628906 108.925781 Z M 243.839844 114.597656 C 239.117188 116.433594 235 118.921875 231.417969 122.105469 C 232.761719 120.023438 234.347656 118.144531 236.753906 116.882812 C 238.953125 115.574219 241.316406 114.84375 243.839844 114.597656 Z M 252.4375 111.90625 C 251.050781 114.148438 247.101562 116.515625 244.371094 114.394531 C 245.511719 111.292969 248.851562 110.804688 252.4375 111.90625 Z M 228.808594 101.992188 C 229.949219 103.703125 230.277344 107.539062 227.871094 108.679688 C 226.039062 106.84375 226.730469 104.195312 228.808594 101.992188 Z M 198.214844 144.132812 C 198.621094 144.132812 198.949219 144.460938 198.949219 144.867188 C 198.949219 145.277344 198.621094 145.601562 198.214844 145.601562 C 197.808594 145.601562 197.480469 145.277344 197.480469 144.867188 C 197.480469 144.460938 197.808594 144.132812 198.214844 144.132812 Z M 200.945312 144.011719 C 201.390625 144.011719 201.757812 144.378906 201.757812 144.828125 C 201.757812 145.277344 201.390625 145.644531 200.945312 145.644531 C 200.496094 145.644531 200.128906 145.277344 200.128906 144.828125 C 200.128906 144.378906 200.496094 144.011719 200.945312 144.011719 Z M 203.796875 143.683594 C 204.324219 143.683594 204.773438 144.132812 204.773438 144.664062 C 204.773438 145.195312 204.324219 145.644531 203.796875 145.644531 C 203.265625 145.644531 202.816406 145.195312 202.816406 144.664062 C 202.816406 144.132812 203.226562 143.683594 203.796875 143.683594 Z M 206.566406 143.238281 C 207.136719 143.238281 207.625 143.726562 207.625 144.296875 C 207.625 144.867188 207.136719 145.359375 206.566406 145.359375 C 205.996094 145.359375 205.507812 144.867188 205.507812 144.296875 C 205.507812 143.726562 205.996094 143.238281 206.566406 143.238281 Z M 209.296875 142.582031 C 209.90625 142.582031 210.394531 143.074219 210.394531 143.683594 C 210.394531 144.296875 209.90625 144.785156 209.296875 144.785156 C 208.683594 144.785156 208.195312 144.296875 208.195312 143.683594 C 208.195312 143.113281 208.683594 142.582031 209.296875 142.582031 Z M 216.34375 139.851562 C 216.914062 139.851562 217.402344 140.339844 217.402344 140.910156 C 217.402344 141.480469 216.914062 141.972656 216.34375 141.972656 C 215.773438 141.972656 215.285156 141.480469 215.285156 140.910156 C 215.324219 140.300781 215.773438 139.851562 216.34375 139.851562 Z M 218.421875 138.871094 C 218.949219 138.871094 219.359375 139.277344 219.359375 139.808594 C 219.359375 140.339844 218.949219 140.746094 218.421875 140.746094 C 217.890625 140.746094 217.484375 140.339844 217.484375 139.808594 C 217.484375 139.277344 217.890625 138.871094 218.421875 138.871094 Z M 220.375 137.730469 C 220.863281 137.730469 221.230469 138.097656 221.230469 138.585938 C 221.230469 139.074219 220.863281 139.441406 220.375 139.441406 C 219.886719 139.441406 219.519531 139.074219 219.519531 138.585938 C 219.519531 138.136719 219.929688 137.730469 220.375 137.730469 Z M 150.101562 121.289062 C 149.367188 118.757812 149.207031 113.128906 151.363281 109.089844 C 152.832031 106.070312 154.664062 103.253906 158.207031 101.460938 C 159.269531 101.09375 160.570312 101.867188 159.269531 102.5625 C 156.171875 104.480469 153.929688 106.765625 152.058594 109.539062 C 150.140625 112.882812 149.695312 116.882812 150.101562 121.289062 Z M 146.433594 117.902344 C 144.359375 111.578125 140.691406 104.765625 133.277344 98.035156 C 131.238281 95.585938 134.132812 94.769531 135.109375 96.238281 C 140.203125 102.441406 143.992188 109.621094 146.433594 117.902344 Z M 122.480469 136.789062 C 121.339844 131.488281 122.074219 127.164062 126.351562 124.226562 C 131.078125 120.105469 141.507812 121.289062 143.949219 124.46875 C 142.078125 122.675781 132.542969 120.960938 127.859375 125.816406 C 124.355469 128.425781 123.253906 132.589844 122.480469 136.789062 Z M 158.128906 131.730469 C 155.640625 129.445312 154.542969 126.796875 159.511719 122.59375 C 160.125 121.898438 159.390625 120.675781 158.65625 122.105469 C 158.414062 122.429688 157.921875 122.105469 158.085938 121.777344 C 158.535156 120.714844 159.511719 120.472656 160.125 121.082031 C 160.9375 122.390625 160.246094 123.898438 158.738281 125.449219 C 157.230469 127.488281 157.273438 129.570312 158.128906 131.730469 Z M 145.621094 125.570312 C 143.378906 125.082031 141.300781 125.367188 139.507812 127.242188 C 138.207031 128.957031 136.863281 129.894531 135.4375 129.285156 C 134.742188 128.792969 134.824219 127.773438 135.800781 127.164062 C 136.128906 126.957031 136.496094 127.40625 136.25 127.691406 C 134.988281 128.632812 136.292969 129.160156 136.863281 128.425781 C 140.203125 122.839844 142.972656 123.492188 145.621094 125.570312 Z M 147.332031 108.925781 C 148.59375 109.578125 148.105469 112.679688 148.144531 114.476562 C 148.023438 117.167969 148.269531 119.980469 149.082031 122.757812 C 148.066406 120.714844 147.289062 118.1875 146.925781 114.351562 C 146.882812 112.351562 147.167969 110.558594 147.332031 108.925781 Z M 131.117188 114.597656 C 133.644531 114.882812 136.046875 115.617188 138.207031 116.839844 C 140.609375 118.105469 142.199219 119.980469 143.542969 122.0625 C 139.917969 118.921875 135.800781 116.390625 131.117188 114.597656 Z M 122.523438 111.90625 C 126.105469 110.804688 129.449219 111.292969 130.589844 114.394531 C 127.859375 116.515625 123.90625 114.148438 122.523438 111.90625 Z M 146.148438 101.992188 C 148.269531 104.152344 148.960938 106.84375 147.085938 108.679688 C 144.644531 107.539062 144.96875 103.746094 146.148438 101.992188 Z M 176.703125 144.132812 C 177.113281 144.132812 177.4375 144.460938 177.4375 144.867188 C 177.4375 145.277344 177.113281 145.601562 176.703125 145.601562 C 176.296875 145.601562 175.972656 145.277344 175.972656 144.867188 C 176.011719 144.460938 176.335938 144.132812 176.703125 144.132812 Z M 174.015625 144.011719 C 174.464844 144.011719 174.832031 144.378906 174.832031 144.828125 C 174.832031 145.277344 174.464844 145.644531 174.015625 145.644531 C 173.566406 145.644531 173.199219 145.277344 173.199219 144.828125 C 173.199219 144.378906 173.566406 144.011719 174.015625 144.011719 Z M 171.164062 143.683594 C 171.691406 143.683594 172.140625 144.132812 172.140625 144.664062 C 172.140625 145.195312 171.691406 145.644531 171.164062 145.644531 C 170.632812 145.644531 170.1875 145.195312 170.1875 144.664062 C 170.1875 144.132812 170.632812 143.683594 171.164062 143.683594 Z M 168.394531 143.238281 C 168.964844 143.238281 169.453125 143.726562 169.453125 144.296875 C 169.453125 144.867188 168.964844 145.359375 168.394531 145.359375 C 167.824219 145.359375 167.335938 144.867188 167.335938 144.296875 C 167.335938 143.726562 167.78125 143.238281 168.394531 143.238281 Z M 165.664062 142.582031 C 166.273438 142.582031 166.765625 143.074219 166.765625 143.683594 C 166.765625 144.296875 166.273438 144.785156 165.664062 144.785156 C 165.054688 144.785156 164.5625 144.296875 164.5625 143.683594 C 164.5625 143.113281 165.054688 142.582031 165.664062 142.582031 Z M 158.574219 139.851562 C 159.144531 139.851562 159.632812 140.339844 159.632812 140.910156 C 159.632812 141.480469 159.144531 141.972656 158.574219 141.972656 C 158.003906 141.972656 157.515625 141.480469 157.515625 140.910156 C 157.558594 140.300781 158.003906 139.851562 158.574219 139.851562 Z M 156.539062 138.871094 C 157.066406 138.871094 157.476562 139.277344 157.476562 139.808594 C 157.476562 140.339844 157.066406 140.746094 156.539062 140.746094 C 156.007812 140.746094 155.601562 140.339844 155.601562 139.808594 C 155.601562 139.277344 156.007812 138.871094 156.539062 138.871094 Z M 154.542969 137.730469 C 155.03125 137.730469 155.398438 138.097656 155.398438 138.585938 C 155.398438 139.074219 155.03125 139.441406 154.542969 139.441406 C 154.054688 139.441406 153.6875 139.074219 153.6875 138.585938 C 153.6875 138.136719 154.09375 137.730469 154.542969 137.730469 Z M 154.542969 137.730469 " fill-opacity="1" fill-rule="evenodd"/></g><g fill="#d49b35" fill-opacity="1"><g transform="translate(156.683124, 276.923977)"><g><path d="M 5.171875 -0.40625 L 4.875 -0.40625 L 2.578125 -5.96875 C 2.441406 -6.28125 2.332031 -6.550781 2.25 -6.78125 L 2.140625 -5.953125 L 1.25 0 L 0.703125 0 L 2 -7.9375 L 2.3125 -7.9375 L 4.765625 -2.09375 C 4.890625 -1.820312 4.988281 -1.566406 5.0625 -1.328125 C 5.082031 -1.410156 5.195312 -1.664062 5.40625 -2.09375 L 8.140625 -7.9375 L 8.4375 -7.9375 L 9.640625 0 L 9.078125 0 L 8.234375 -5.96875 C 8.171875 -6.34375 8.140625 -6.625 8.140625 -6.8125 C 8.128906 -6.8125 8.109375 -6.78125 8.078125 -6.71875 C 8.054688 -6.65625 8.015625 -6.550781 7.953125 -6.40625 C 7.890625 -6.257812 7.828125 -6.113281 7.765625 -5.96875 Z M 5.171875 -0.40625 "/></g></g></g><g fill="#d49b35" fill-opacity="1"><g transform="translate(168.69886, 276.923977)"><g><path d="M 2.078125 -1.046875 C 1.347656 -1.828125 0.984375 -2.789062 0.984375 -3.9375 C 0.984375 -5.082031 1.347656 -6.046875 2.078125 -6.828125 C 2.804688 -7.609375 3.726562 -8 4.84375 -8 C 5.957031 -8 6.878906 -7.609375 7.609375 -6.828125 C 8.347656 -6.046875 8.71875 -5.082031 8.71875 -3.9375 C 8.71875 -2.789062 8.347656 -1.828125 7.609375 -1.046875 C 6.878906 -0.265625 5.957031 0.125 4.84375 0.125 C 3.726562 0.125 2.804688 -0.265625 2.078125 -1.046875 Z M 2.46875 -6.484375 C 1.863281 -5.796875 1.5625 -4.945312 1.5625 -3.9375 C 1.5625 -2.925781 1.867188 -2.078125 2.484375 -1.390625 C 3.097656 -0.703125 3.890625 -0.359375 4.859375 -0.359375 C 5.828125 -0.359375 6.617188 -0.703125 7.234375 -1.390625 C 7.847656 -2.078125 8.15625 -2.925781 8.15625 -3.9375 C 8.15625 -4.945312 7.847656 -5.796875 7.234375 -6.484375 C 6.617188 -7.171875 5.820312 -7.515625 4.84375 -7.515625 C 3.875 -7.515625 3.082031 -7.171875 2.46875 -6.484375 Z M 2.46875 -6.484375 "/></g></g></g><g fill="#d49b35" fill-opacity="1"><g transform="translate(180.088033, 276.923977)"><g><path d="M 1.453125 0 L 1.453125 -7.828125 C 2.148438 -7.878906 2.734375 -7.90625 3.203125 -7.90625 C 3.953125 -7.90625 4.566406 -7.710938 5.046875 -7.328125 C 5.535156 -6.941406 5.78125 -6.398438 5.78125 -5.703125 C 5.78125 -5.222656 5.640625 -4.773438 5.359375 -4.359375 C 5.078125 -3.953125 4.765625 -3.628906 4.421875 -3.390625 C 4.691406 -3.015625 5.023438 -2.566406 5.421875 -2.046875 C 5.828125 -1.535156 6.085938 -1.210938 6.203125 -1.078125 C 6.648438 -0.597656 7.15625 -0.328125 7.71875 -0.265625 L 7.71875 0.09375 C 7.269531 0.0820312 6.90625 0.015625 6.625 -0.109375 C 6.34375 -0.242188 6.070312 -0.441406 5.8125 -0.703125 C 5.5625 -0.960938 4.9375 -1.785156 3.9375 -3.171875 C 3.21875 -3.171875 2.566406 -3.191406 1.984375 -3.234375 L 1.984375 0 Z M 3.625 -3.609375 C 3.945312 -3.609375 4.289062 -3.820312 4.65625 -4.25 C 5.019531 -4.675781 5.203125 -5.164062 5.203125 -5.71875 C 5.203125 -6.28125 5.007812 -6.707031 4.625 -7 C 4.25 -7.289062 3.753906 -7.4375 3.140625 -7.4375 C 2.804688 -7.4375 2.421875 -7.421875 1.984375 -7.390625 L 1.984375 -3.65625 C 2.566406 -3.625 3.113281 -3.609375 3.625 -3.609375 Z M 3.625 -3.609375 "/></g></g></g><g fill="#d49b35" fill-opacity="1"><g transform="translate(189.003955, 276.923977)"><g><path d="M 4.828125 -7.515625 C 3.867188 -7.515625 3.082031 -7.164062 2.46875 -6.46875 C 1.863281 -5.78125 1.5625 -4.9375 1.5625 -3.9375 C 1.5625 -2.9375 1.90625 -2.085938 2.59375 -1.390625 C 3.28125 -0.703125 4.117188 -0.359375 5.109375 -0.359375 C 5.960938 -0.359375 6.671875 -0.472656 7.234375 -0.703125 L 7.234375 -3.9375 L 7.765625 -3.9375 L 7.765625 -0.46875 C 7.128906 -0.0703125 6.234375 0.125 5.078125 0.125 C 3.929688 0.125 2.960938 -0.265625 2.171875 -1.046875 C 1.378906 -1.835938 0.984375 -2.800781 0.984375 -3.9375 C 0.984375 -5.082031 1.34375 -6.046875 2.0625 -6.828125 C 2.78125 -7.609375 3.703125 -8 4.828125 -8 C 5.710938 -8 6.601562 -7.851562 7.5 -7.5625 L 7.359375 -7.109375 C 6.472656 -7.378906 5.628906 -7.515625 4.828125 -7.515625 Z M 4.828125 -7.515625 "/></g></g></g><g fill="#d49b35" fill-opacity="1"><g transform="translate(199.722605, 276.923977)"><g><path d="M 1.875 -2.734375 L 0.734375 0 L 0.171875 0 L 3.484375 -7.921875 L 3.796875 -7.921875 L 7.109375 0 L 6.515625 0 L 5.390625 -2.734375 Z M 3.609375 -7.046875 C 3.597656 -7.035156 3.582031 -6.988281 3.5625 -6.90625 C 3.457031 -6.59375 3.359375 -6.328125 3.265625 -6.109375 L 2.0625 -3.171875 L 5.203125 -3.171875 L 4 -6.09375 C 3.738281 -6.65625 3.609375 -6.972656 3.609375 -7.046875 Z M 3.609375 -7.046875 "/></g></g></g><g fill="#d49b35" fill-opacity="1"><g transform="translate(208.693491, 276.923977)"><g><path d="M 1.953125 -6.609375 L 1.984375 -5.671875 L 1.984375 0 L 1.453125 0 L 1.453125 -7.9375 L 1.6875 -7.9375 L 6.875 -1.953125 C 7.226562 -1.535156 7.5 -1.203125 7.6875 -0.953125 C 7.65625 -1.304688 7.640625 -1.710938 7.640625 -2.171875 L 7.640625 -7.859375 L 8.171875 -7.859375 L 8.171875 0.0625 L 7.9375 0.0625 L 2.65625 -6.015625 C 2.28125 -6.429688 2.046875 -6.710938 1.953125 -6.859375 Z M 1.953125 -6.609375 "/></g></g></g><g fill="#d49b35" fill-opacity="1"><g transform="translate(131.510408, 257.897721)"><g><path d="M -0.265625 0 L 1.511719 0 L 1.511719 -0.203125 C 0.976562 -0.316406 0.914062 -0.832031 1.320312 -1.855469 L 2.25 -4.152344 L 6.6875 -4.152344 L 7.648438 -1.839844 C 8.152344 -0.660156 8.277344 -0.347656 7.789062 -0.203125 L 7.789062 0 L 10.226562 0 L 10.226562 -0.203125 C 9.898438 -0.347656 9.519531 -0.660156 9.03125 -1.839844 L 5.160156 -11.140625 L 3.980469 -10.605469 L 4.121094 -10.273438 C 4.25 -10.023438 4.265625 -9.820312 4.152344 -9.535156 L 1.054688 -1.855469 C 0.566406 -0.660156 0.171875 -0.347656 -0.265625 -0.203125 Z M 2.34375 -4.390625 L 4.4375 -9.566406 L 6.59375 -4.390625 Z M 2.34375 -4.390625 "/></g></g></g><g fill="#d49b35" fill-opacity="1"><g transform="translate(148.783086, 257.897721)"><g><path d="M 5.679688 0.15625 C 7.867188 0.15625 9.597656 -1.039062 9.597656 -4.203125 L 9.597656 -9.015625 C 9.597656 -10.304688 9.753906 -10.667969 10.226562 -10.808594 L 10.226562 -11.015625 L 8.277344 -11.015625 L 8.277344 -10.808594 C 8.96875 -10.621094 9.347656 -10.179688 9.347656 -8.386719 L 9.347656 -4.152344 C 9.347656 -1.070312 7.535156 -0.171875 6.183594 -0.171875 C 4.136719 -0.171875 2.519531 -1.226562 2.519531 -4.152344 L 2.519531 -9.015625 C 2.519531 -10.304688 2.675781 -10.667969 3.148438 -10.808594 L 3.148438 -11.015625 L 0.597656 -11.015625 L 0.597656 -10.808594 C 1.085938 -10.667969 1.226562 -10.304688 1.226562 -9.015625 L 1.226562 -4.058594 C 1.226562 -0.898438 3.429688 0.15625 5.679688 0.15625 Z M 5.679688 0.15625 "/></g></g></g><g fill="#d49b35" fill-opacity="1"><g transform="translate(166.653375, 257.897721)"><g><path d="M 8.8125 0.109375 C 9.125 0.109375 9.535156 0.078125 9.769531 0 L 9.769531 -0.1875 C 9.691406 -0.171875 9.613281 -0.171875 9.519531 -0.171875 C 8.984375 -0.171875 8.671875 -0.691406 7.914062 -2.582031 C 7.160156 -4.515625 6.859375 -5.476562 4.925781 -5.726562 C 6.96875 -5.964844 8.039062 -7.082031 8.039062 -8.558594 C 8.039062 -9.960938 7.097656 -11.015625 3.902344 -11.015625 L 0.800781 -11.015625 L 0.800781 -10.808594 C 1.289062 -10.667969 1.433594 -10.304688 1.433594 -9.015625 L 1.433594 -2 C 1.433594 -0.707031 1.289062 -0.347656 0.800781 -0.203125 L 0.800781 0 L 3.351562 0 L 3.351562 -0.203125 C 2.863281 -0.347656 2.722656 -0.707031 2.722656 -2 L 2.722656 -5.679688 L 3.730469 -5.679688 C 5.617188 -5.679688 5.742188 -4.578125 6.65625 -2.40625 C 7.347656 -0.769531 7.601562 0.109375 8.8125 0.109375 Z M 2.722656 -5.917969 L 2.722656 -10.746094 C 2.972656 -10.761719 3.226562 -10.777344 3.460938 -10.777344 C 5.789062 -10.777344 6.703125 -9.597656 6.703125 -8.199219 C 6.703125 -6.859375 5.851562 -5.917969 4.042969 -5.917969 Z M 2.722656 -5.917969 "/></g></g></g><g fill="#d49b35" fill-opacity="1"><g transform="translate(183.46998, 257.897721)"><g><path d="M 6.417969 0.15625 C 9.0625 0.15625 11.988281 -1.574219 11.988281 -5.460938 C 11.988281 -9.316406 9.078125 -11.140625 6.417969 -11.140625 C 3.085938 -11.140625 0.816406 -8.75 0.816406 -5.523438 C 0.816406 -1.621094 3.746094 0.15625 6.417969 0.15625 Z M 2.078125 -6.4375 C 1.984375 -9 3.382812 -10.777344 5.773438 -10.777344 C 8.589844 -10.777344 10.652344 -7.710938 10.761719 -4.421875 C 10.839844 -2.0625 9.597656 -0.234375 7.082031 -0.234375 C 4.265625 -0.234375 2.1875 -3.273438 2.078125 -6.4375 Z M 2.078125 -6.4375 "/></g></g></g><g fill="#d49b35" fill-opacity="1"><g transform="translate(203.447621, 257.897721)"><g><path d="M 0.800781 0 L 3.351562 0 L 3.351562 -0.203125 C 2.863281 -0.347656 2.722656 -0.707031 2.722656 -2 L 2.722656 -9.015625 C 2.722656 -10.304688 2.863281 -10.667969 3.351562 -10.808594 L 3.351562 -11.015625 L 0.800781 -11.015625 L 0.800781 -10.808594 C 1.273438 -10.667969 1.433594 -10.304688 1.433594 -9.015625 L 1.433594 -2 C 1.433594 -0.707031 1.273438 -0.347656 0.800781 -0.203125 Z M 0.800781 0 "/></g></g></g><g fill="#d49b35" fill-opacity="1"><g transform="translate(214.791416, 257.897721)"><g><path d="M -0.265625 0 L 1.511719 0 L 1.511719 -0.203125 C 0.976562 -0.316406 0.914062 -0.832031 1.320312 -1.855469 L 2.25 -4.152344 L 6.6875 -4.152344 L 7.648438 -1.839844 C 8.152344 -0.660156 8.277344 -0.347656 7.789062 -0.203125 L 7.789062 0 L 10.226562 0 L 10.226562 -0.203125 C 9.898438 -0.347656 9.519531 -0.660156 9.03125 -1.839844 L 5.160156 -11.140625 L 3.980469 -10.605469 L 4.121094 -10.273438 C 4.25 -10.023438 4.265625 -9.820312 4.152344 -9.535156 L 1.054688 -1.855469 C 0.566406 -0.660156 0.171875 -0.347656 -0.265625 -0.203125 Z M 2.34375 -4.390625 L 4.4375 -9.566406 L 6.59375 -4.390625 Z M 2.34375 -4.390625 "/></g></g></g><g fill="#d49b35" fill-opacity="1"><g transform="translate(232.064097, 257.897721)"><g><path d="M 0.800781 0 L 3.351562 0 L 3.351562 -0.203125 C 2.863281 -0.347656 2.722656 -0.707031 2.722656 -2 L 2.722656 -5.710938 L 8.71875 -5.710938 L 8.71875 -2 C 8.71875 -0.707031 8.558594 -0.347656 8.085938 -0.203125 L 8.085938 0 L 10.636719 0 L 10.636719 -0.203125 C 10.148438 -0.347656 10.007812 -0.707031 10.007812 -2 L 10.007812 -9.015625 C 10.007812 -10.304688 10.148438 -10.667969 10.636719 -10.808594 L 10.636719 -11.015625 L 8.085938 -11.015625 L 8.085938 -10.808594 C 8.558594 -10.667969 8.71875 -10.304688 8.71875 -9.015625 L 8.71875 -5.964844 L 2.722656 -5.964844 L 2.722656 -9.015625 C 2.722656 -10.304688 2.863281 -10.667969 3.351562 -10.808594 L 3.351562 -11.015625 L 0.800781 -11.015625 L 0.800781 -10.808594 C 1.273438 -10.667969 1.433594 -10.304688 1.433594 -9.015625 L 1.433594 -2 C 1.433594 -0.707031 1.273438 -0.347656 0.800781 -0.203125 Z M 0.800781 0 "/></g></g></g><g fill="#d49b35" fill-opacity="1"><g transform="translate(145.214555, 187.573742)"><g><path d="M 26.65625 -3.953125 C 27.40625 -2.003906 28.488281 -1 29.90625 -0.9375 L 29.90625 0 C 28.644531 -0.09375 26.96875 -0.140625 24.875 -0.140625 C 22.175781 -0.140625 20.171875 -0.09375 18.859375 0 L 18.859375 -0.9375 C 20.046875 -1 20.894531 -1.144531 21.40625 -1.375 C 21.925781 -1.613281 22.1875 -2.050781 22.1875 -2.6875 C 22.1875 -3.21875 22 -3.953125 21.625 -4.890625 L 18.765625 -12.59375 L 7.375 -12.59375 L 5.453125 -7.609375 C 4.828125 -5.921875 4.515625 -4.640625 4.515625 -3.765625 C 4.515625 -2.785156 4.847656 -2.078125 5.515625 -1.640625 C 6.191406 -1.203125 7.222656 -0.96875 8.609375 -0.9375 L 8.609375 0 C 6.816406 -0.09375 5.015625 -0.140625 3.203125 -0.140625 C 1.785156 -0.140625 0.609375 -0.09375 -0.328125 0 L -0.328125 -0.9375 C 1.234375 -1.3125 2.472656 -2.675781 3.390625 -5.03125 L 14.4375 -33.515625 L 15.1875 -33.515625 Z M 18.390625 -13.546875 L 13.125 -27.59375 L 7.75 -13.546875 Z M 18.390625 -13.546875 "/></g></g></g><g fill="#d49b35" fill-opacity="1"><g transform="translate(188.836225, 187.573742)"><g><path d="M 38.96875 -32.34375 C 37.84375 -32.28125 37.019531 -32.15625 36.5 -31.96875 C 35.988281 -31.78125 35.640625 -31.421875 35.453125 -30.890625 C 35.265625 -30.359375 35.171875 -29.492188 35.171875 -28.296875 L 35.171875 -4.984375 C 35.171875 -3.796875 35.265625 -2.929688 35.453125 -2.390625 C 35.640625 -1.859375 35.988281 -1.5 36.5 -1.3125 C 37.019531 -1.125 37.84375 -1 38.96875 -0.9375 L 38.96875 0 C 37.53125 -0.09375 35.539062 -0.140625 33 -0.140625 C 30.3125 -0.140625 28.304688 -0.09375 26.984375 0 L 26.984375 -0.9375 C 28.109375 -1 28.929688 -1.125 29.453125 -1.3125 C 29.972656 -1.5 30.328125 -1.859375 30.515625 -2.390625 C 30.703125 -2.929688 30.796875 -3.796875 30.796875 -4.984375 L 30.796875 -30.1875 L 19.46875 0.234375 L 18.71875 0.234375 L 6.859375 -30.28125 L 6.859375 -5.453125 C 6.859375 -4.234375 6.957031 -3.320312 7.15625 -2.71875 C 7.363281 -2.125 7.765625 -1.691406 8.359375 -1.421875 C 8.960938 -1.160156 9.890625 -1 11.140625 -0.9375 L 11.140625 0 C 10.015625 -0.09375 8.414062 -0.140625 6.34375 -0.140625 C 4.46875 -0.140625 3.007812 -0.09375 1.96875 0 L 1.96875 -0.9375 C 3.070312 -1 3.890625 -1.160156 4.421875 -1.421875 C 4.953125 -1.691406 5.3125 -2.132812 5.5 -2.75 C 5.6875 -3.363281 5.78125 -4.265625 5.78125 -5.453125 L 5.78125 -28.296875 C 5.78125 -29.492188 5.6875 -30.359375 5.5 -30.890625 C 5.3125 -31.421875 4.957031 -31.78125 4.4375 -31.96875 C 3.925781 -32.15625 3.101562 -32.28125 1.96875 -32.34375 L 1.96875 -33.28125 C 3.007812 -33.1875 4.46875 -33.140625 6.34375 -33.140625 C 7.976562 -33.140625 9.3125 -33.1875 10.34375 -33.28125 L 20.6875 -6.0625 L 30.796875 -33.140625 L 33 -33.140625 C 35.539062 -33.140625 37.53125 -33.1875 38.96875 -33.28125 Z M 38.96875 -32.34375 "/></g></g></g></svg>